<?xml version="1.0" encoding="UTF-8" standalone="no"?>
<!-- Created with Inkscape (http://www.inkscape.org/) -->

<svg
   width="1122.5197"
   height="793.70081"
   viewBox="0 0 296.99999 210"
   version="1.1"
   id="svg1"
   xml:space="preserve"
   inkscape:export-filename="PlomerosMultiservicios.svg"
   inkscape:export-xdpi="96"
   inkscape:export-ydpi="96"
   inkscape:version="1.4.2 (f4327f4, 2025-05-13)"
   sodipodi:docname="Project_Plomeros.svg"
   xmlns:inkscape="http://www.inkscape.org/namespaces/inkscape"
   xmlns:sodipodi="http://sodipodi.sourceforge.net/DTD/sodipodi-0.dtd"
   xmlns="http://www.w3.org/2000/svg"
   xmlns:svg="http://www.w3.org/2000/svg"><sodipodi:namedview
     id="namedview1"
     pagecolor="#505050"
     bordercolor="#eeeeee"
     borderopacity="1"
     inkscape:showpageshadow="0"
     inkscape:pageopacity="0"
     inkscape:pagecheckerboard="0"
     inkscape:deskcolor="#505050"
     inkscape:document-units="px"
     inkscape:zoom="0.71090067"
     inkscape:cx="496.55319"
     inkscape:cy="399.49322"
     inkscape:window-width="1920"
     inkscape:window-height="991"
     inkscape:window-x="-9"
     inkscape:window-y="-9"
     inkscape:window-maximized="1"
     inkscape:current-layer="layer1" /><defs
     id="defs1" /><g
     inkscape:label="Capa 1"
     inkscape:groupmode="layer"
     id="layer1"><path
       style="fill:#000000"
       d="m 29.538524,131.40241 v -13.42466 h 4.65446 4.65447 l 0.59783,2.51712 c 0.32881,1.38442 0.73689,4.42647 0.90684,6.76011 0.32247,4.42799 0.82961,4.62877 1.39312,0.55154 0.18223,-1.3185 0.6061,-4.06935 0.94194,-6.11302 l 0.61061,-3.71575 h 4.60367 4.60367 v 13.42466 13.42465 h -2.87083 -2.87082 l -0.0572,-7.07191 c -0.0631,-7.79824 -0.47968,-7.29189 -1.67658,2.03767 l -0.61509,4.79452 -2.95828,0.14261 c -3.34137,0.16108 -3.17089,0.34838 -4.05734,-4.45768 -0.29183,-1.58219 -0.86675,-4.49486 -1.2776,-6.4726 l -0.74701,-3.59589 -0.0471,7.31164 -0.0471,7.31164 h -2.87083 -2.87082 z m 29.43584,12.41066 c -0.89563,-0.90805 -1.0035,-1.99142 -1.14751,-11.52454 l -0.15894,-10.52228 3.29075,0.14342 3.29076,0.14342 0.14215,9.02611 c 0.10826,6.87389 0.29495,8.97942 0.78296,8.83031 0.46898,-0.1433 0.67887,-2.59562 0.7828,-9.14597 l 0.14201,-8.95017 h 3.39073 3.39072 l -0.13994,11.38698 -0.13994,11.38699 -6.31899,0.114 c -5.83259,0.10522 -6.39509,0.0368 -7.30756,-0.88827 z m 18.70761,-12.53053 0.13862,-13.54452 h 3.13182 3.13181 l 0.13862,13.54452 0.13862,13.54452 h -3.40905 -3.40906 z m 12.86027,12.75283 c -0.52504,-0.58024 -0.76322,-2.88527 -0.89177,-8.63014 -0.0965,-4.31114 -0.39008,-7.83844 -0.65246,-7.83844 -0.26239,0 -0.47706,-1.07877 -0.47706,-2.39726 0,-1.31849 0.22201,-2.39726 0.49337,-2.39726 0.27135,0 0.56496,-1.02483 0.65246,-2.2774 l 0.15909,-2.27739 3.2623,-0.14275 3.2623,-0.14274 v 2.42014 c 0,1.8316 0.1904,2.42014 0.78295,2.42014 0.57997,0 0.78295,0.55936 0.78295,2.15753 0,1.59818 -0.20298,2.15754 -0.78295,2.15754 -0.65867,0 -0.78295,1.06545 -0.78295,6.71233 0,5.64688 0.12428,6.71233 0.78295,6.71233 0.57997,0 0.78295,0.55936 0.78295,2.15753 v 2.15753 h -3.32888 c -2.45732,0 -3.51644,-0.20728 -4.04525,-0.79169 z m 11.897856,0.47206 c -0.19139,-0.1758 -0.34798,-5.35388 -0.34798,-11.50685 v -11.18721 h 3.3928 3.39279 v 11.50685 11.50684 h -3.04482 c -1.67464,0 -3.2014,-0.14383 -3.39279,-0.31963 z m 12.44193,-1.3138 c -1.05667,-1.27253 -1.37969,-2.25242 -1.46197,-4.43493 l -0.10562,-2.8015 h 3.13181 3.13181 l 0.16051,2.03767 c 0.11263,1.42989 0.39495,2.03767 0.94651,2.03767 0.57032,0 0.74113,-0.42088 0.62245,-1.53377 -0.12745,-1.19515 -0.79737,-2.00502 -3.03439,-3.66831 -3.94969,-2.9367 -4.69366,-4.09216 -4.67691,-7.26367 0.0148,-2.79916 0.79469,-4.13529 3.06534,-5.25152 1.5328,-0.75351 6.85847,-0.77886 8.36187,-0.0398 1.60384,0.78843 3.16285,3.33567 3.16515,5.17146 l 0.002,1.55822 h -3.39279 c -3.24913,0 -3.3928,-0.0496 -3.3928,-1.17034 0,-1.36927 -0.91729,-2.08794 -1.34827,-1.05632 -0.34142,0.81726 1.17695,3.17708 2.06076,3.2028 1.66283,0.0484 5.75181,4.59896 6.31089,7.02329 0.47952,2.07928 -0.42806,4.81501 -2.14276,6.45899 -1.33812,1.28293 -1.67697,1.36349 -5.73466,1.36349 -4.29274,0 -4.31874,-0.007 -5.66888,-1.63343 z m 20.76632,1.32195 c -0.34799,-0.12968 -1.1647,-1.02645 -1.81492,-1.99284 -1.09402,-1.62597 -1.18312,-2.31354 -1.19419,-9.21603 -0.013,-8.0798 0.28517,-9.1122 3.12499,-10.82135 1.57015,-0.945 7.46033,-1.03866 9.02092,-0.14344 1.87735,1.07692 2.71822,3.51397 2.71822,7.87812 v 4.05908 h -4.17575 -4.17574 v 2.87671 c 0,2.13925 0.18639,2.87671 0.7271,2.87671 0.87122,0 1.36077,-1.03058 1.36077,-2.86463 0,-1.72073 0.52084,-1.86841 5.35017,-1.51692 1.99763,0.1454 0.52011,7.60701 -1.72485,8.71061 -0.95736,0.47063 -8.04907,0.58911 -9.21672,0.15398 z m 5.39912,-15.83213 c -0.3735,-2.50297 -0.53792,-2.78972 -1.3389,-2.335 -0.30618,0.17381 -0.55669,1.27419 -0.55669,2.44527 0,1.85477 0.14371,2.12924 1.11488,2.12924 1.02711,0 1.08857,-0.17633 0.78071,-2.23951 z m 11.15361,4.63677 v -11.50685 h 3.3928 c 1.86604,0 3.39279,0.19921 3.39279,0.4427 0,0.24349 0.72452,0.11071 1.61005,-0.29507 2.07642,-0.95148 2.67932,-0.39249 2.46869,2.28887 -0.15529,1.97678 -0.26763,2.10971 -2.12136,2.51002 l -1.95738,0.42271 v 8.82223 8.82223 h -3.39279 -3.3928 z m 18.0875,10.68882 c -0.3332,-1.07623 -1.06883,-4.73927 -2.19475,-10.92855 -0.4797,-2.63699 -1.1721,-6.13109 -1.53865,-7.76467 -0.36656,-1.63358 -0.53608,-3.08992 -0.37672,-3.2363 0.15937,-0.14638 1.6348,-0.26615 3.27873,-0.26615 3.4292,0 3.60657,0.19397 3.65271,3.99469 0.0165,1.36285 0.21168,3.34092 0.43363,4.39572 0.39225,1.86407 0.41407,1.82376 0.77876,-1.43836 0.20637,-1.84589 0.50165,-4.16524 0.65619,-5.15411 l 0.28097,-1.79794 h 3.1578 3.15779 l -0.34717,2.75685 c -0.36018,2.86005 -1.3635,8.27908 -2.9072,15.70205 l -0.89737,4.31507 -3.43423,0.14088 c -2.93362,0.12034 -3.47303,0.0155 -3.70049,-0.71918 z m 15.31848,-10.68882 v -11.50685 h 3.13181 3.13181 v 11.50685 11.50684 h -3.13181 -3.13181 z m 13.38267,10.24403 c -2.04398,-1.87749 -2.55868,-4.40884 -2.33444,-11.4811 0.21415,-6.75411 0.6463,-7.994 3.35432,-9.62384 1.87828,-1.13045 6.96851,-1.08639 8.91438,0.0772 2.36565,1.41456 2.74728,2.1949 2.76489,5.65356 l 0.0166,3.26023 -3.00132,-0.14379 -3.00132,-0.14379 -0.26098,-2.39726 c -0.18559,-1.70472 -0.48717,-2.39726 -1.04394,-2.39726 -0.65255,0 -0.80707,1.13789 -0.92777,6.83219 -0.13963,6.58714 -0.10687,6.83219 0.91344,6.83219 0.93477,0 1.05827,-0.30773 1.05827,-2.63698 v -2.63699 h 3.13181 3.13181 v 3.64326 c 0,3.45741 -0.0827,3.71421 -1.62111,5.03424 -1.50052,1.28753 -1.92231,1.39099 -5.67047,1.39099 -3.67825,0 -4.17537,-0.11573 -5.42417,-1.26281 z m 17.41346,-10.24403 v -11.50685 h 3.13181 3.13181 v 11.50685 11.50684 h -3.13181 -3.13181 z m 13.47887,10.18835 c -1.99101,-1.97148 -2.51753,-4.0304 -2.51753,-9.84469 0,-6.23346 0.59786,-8.38856 2.89432,-10.43307 1.52643,-1.35897 2.03792,-1.51993 4.90895,-1.54477 3.5956,-0.0311 5.4528,0.86503 6.81184,3.28688 1.02683,1.82982 1.39379,13.0417 0.51639,15.77723 -1.11007,3.46093 -2.17289,4.07691 -7.03432,4.07691 -3.9635,0 -4.3373,-0.0883 -5.57965,-1.31849 z m 6.35593,-10.45638 c 0,-5.58821 -0.13982,-6.92376 -0.72486,-6.92376 -1.01704,0 -1.41852,2.49651 -1.32808,8.25852 0.0733,4.67227 0.55371,6.4401 1.59012,5.85175 0.25455,-0.14451 0.46282,-3.37844 0.46282,-7.18651 z m 13.12872,10.56412 c -1.68235,-1.30029 -2.76255,-4.45424 -2.295,-6.70085 0.24834,-1.19329 0.38018,-1.23524 3.45521,-1.09944 l 3.19701,0.14118 0.16051,2.03767 c 0.18943,2.40496 1.66638,2.97292 1.66638,0.64081 0,-1.12727 -0.62961,-1.87919 -3.2623,-3.89601 -4.01147,-3.07307 -5.08132,-4.50158 -5.08575,-6.79073 -0.005,-2.47081 0.913,-4.06718 3.02889,-5.26835 3.41055,-1.93615 9.54195,-1.11387 11.02139,1.47807 0.24209,0.42413 0.60553,1.6881 0.80764,2.80882 l 0.36748,2.03767 h -3.404 c -3.30048,0 -3.40903,-0.039 -3.56917,-1.28152 -0.21791,-1.69081 -1.47008,-2.08168 -1.47008,-0.4589 0,0.77168 0.4983,1.53105 1.36336,2.07762 3.18066,2.00967 5.93238,4.64978 6.50371,6.23991 1.00601,2.79994 0.28854,6.3646 -1.59534,7.92631 -1.43333,1.18821 -1.97254,1.31849 -5.45697,1.31849 -3.37304,0 -4.06639,-0.15451 -5.43297,-1.21075 z m -145.83918,-22.6564 c -1.32237,-0.15582 -1.43541,-0.33653 -1.43541,-2.29483 v -2.12569 h 3.3928 3.39279 v 2.15754 c 0,1.90694 -0.13641,2.16179 -1.17443,2.19422 -0.64593,0.0202 -1.52676,0.082 -1.95738,0.13729 -0.43062,0.0553 -1.42889,0.0245 -2.21837,-0.0685 z m 82.60974,-0.023 c -0.29161,-0.0893 -0.53021,-1.11525 -0.53021,-2.27992 v -2.11758 h 3.16041 3.16041 l -0.15909,2.22805 -0.15909,2.22804 -2.47111,0.0519 c -1.35911,0.0285 -2.7097,-0.0212 -3.00132,-0.11047 z m 30.50205,-0.0253 c -0.12987,-0.11929 -0.23613,-1.15183 -0.23613,-2.29452 v -2.07763 h 3.13181 3.13181 v 2.13581 c 0,2.04397 -0.0729,2.14546 -1.69639,2.36017 -1.93093,0.25538 -3.9821,0.19674 -4.3311,-0.12383 z M 88.777594,105.68205 c -3.24132,-1.03481 -7.03125,-3.96255 -8.50314,-6.568699 -0.9209,-1.630585 -1.38235,-3.346036 -1.54761,-5.753426 -0.29133,-4.243546 0.51292,-6.056536 6.58976,-14.855172 2.33655,-3.383093 4.24973,-6.295764 4.2515,-6.472602 0.002,-0.176838 0.32712,-0.891739 0.723,-1.588669 1.30312,-2.294093 2.92756,-7.099025 2.92756,-8.659421 0,-2.372436 0.76368,-1.014422 1.80752,3.214238 0.96169,3.89587 4.02772,9.606814 8.108206,15.102739 1.07681,1.450343 2.8575,4.255137 3.95707,6.232877 1.67879,3.019531 1.99717,4.063372 1.98635,6.512495 -0.0253,5.721478 -5.06633,11.46545 -11.503256,13.10724 -2.62813,0.67032 -6.19116,0.56031 -8.79696,-0.2716 z m 12.671016,-4.80414 c 2.54713,-1.917175 3.78277,-4.051447 3.7619,-6.497774 -0.0134,-1.568658 -0.0176,-1.566062 -1.34796,0.823642 -1.58399,2.845376 -3.39927,4.575263 -6.521326,6.214562 l -2.29567,1.20539 2.03412,0.006 c 1.57497,0.004 2.56112,-0.3909 4.368936,-1.7516 z m -43.332316,4.24265 -1.43541,-0.15171 V 84.144534 63.320216 h 4.69771 4.69772 V 80.58049 97.840764 h 4.69771 4.69772 v 3.572446 3.57244 l -7.96002,0.14331 c -4.37801,0.0788 -8.60595,0.075 -9.39543,-0.008 z m 99.956936,-0.002 -1.17443,-0.15321 V 84.131971 63.29809 l 9.26494,0.130926 9.26494,0.130926 v 4.075343 4.075342 l -4.56723,0.13853 -4.56722,0.138529 v 3.774732 3.774731 l 1.43541,-0.187673 c 0.78948,-0.10322 2.78601,-0.06304 4.43673,0.08929 l 3.00132,0.276967 V 83.744 87.772266 h -4.43673 -4.43673 v 4.554795 4.554794 h 4.97902 4.97902 l -0.15081,4.092605 -0.15081,4.09259 -8.3515,0.10261 c -4.59332,0.0564 -8.87999,0.0337 -9.52592,-0.0506 z m 60.54088,-0.83917 c -2.27532,-1.04149 -2.91702,-1.65344 -4.14774,-3.95548 l -1.45597,-2.722872 -0.15474,-12.874297 c -0.13138,-10.931173 -0.0251,-13.232698 0.70392,-15.248903 1.75174,-4.844422 6.21905,-7.138927 12.49654,-6.418492 3.80677,0.436883 6.75931,2.294313 8.37187,5.266714 1.27422,2.348746 1.28803,2.51371 1.28803,15.379597 0,14.248397 -0.31662,16.199594 -3.03895,18.727713 -3.49538,3.24602 -9.33138,4.01231 -14.06296,1.84652 z m 6.92353,-20.103509 V 71.231175 l -1.17359,-0.153108 c -1.92256,-0.25082 -2.2192,1.540496 -2.2192,13.400772 0,11.667629 0.24433,13.054462 2.25368,12.791705 1.1387,-0.148905 1.13911,-0.153564 1.13911,-13.094163 z m 23.3717,20.571459 c -4.2126,-1.42494 -5.80587,-4.31037 -6.26281,-11.342007 l -0.27261,-4.195206 h 4.76156 4.76156 v 3.147959 c 0,3.696176 0.60741,5.002726 2.32575,5.002726 1.61565,0 2.12552,-1.926483 1.3035,-4.925094 -0.47688,-1.739598 -1.46129,-2.989511 -4.86662,-6.179177 -5.27451,-4.940478 -6.84562,-6.867317 -7.57965,-9.295852 -1.24703,-4.125779 -0.0216,-8.99555 2.90062,-11.527089 3.31129,-2.868572 9.49779,-3.319397 14.00691,-1.020715 2.66372,1.35792 4.55966,4.711931 4.86656,8.60915 l 0.22069,2.80249 -4.6315,-0.139391 -4.63149,-0.13939 -0.26099,-1.868853 c -0.44769,-3.205855 -3.64923,-3.786338 -3.65839,-0.663318 -0.004,1.355194 0.6363,2.138155 4.61923,5.648609 7.06415,6.226155 8.96247,9.280222 8.95036,14.399591 -0.0119,5.041759 -1.78371,9.109487 -4.83801,11.107187 -2.07621,1.35797 -8.47584,1.67394 -11.71467,0.57838 z M 26.928684,84.176381 V 63.320216 l 6.91608,0.0027 c 8.10851,0.0031 10.03698,0.397965 12.26721,2.511548 2.47909,2.349428 3.26135,4.958272 3.26135,10.876578 0,4.537257 -0.15261,5.400856 -1.34173,7.592747 -1.70297,3.139039 -3.70053,4.285767 -8.20392,4.709572 l -3.50356,0.329712 v 7.844749 7.844748 h -4.69772 -4.69771 z m 12.72241,-5.831996 c 0.26089,-1.141779 0.25987,-2.988952 -0.002,-4.315069 -0.40538,-2.047957 -0.62624,-2.336402 -1.89197,-2.470398 l -1.43304,-0.151709 v 4.618487 4.618487 l 1.43541,-0.151709 c 1.21985,-0.128926 1.50392,-0.45152 1.89157,-2.148089 z m 73.005346,5.951859 0.13603,-20.736302 h 7.03993 7.03992 l 0.58242,3.116439 c 0.32034,1.714041 1.00494,5.813356 1.52133,9.109589 1.68708,10.768869 1.53995,10.396106 2.27094,5.753424 1.18314,-7.514409 2.26263,-14.127725 2.62174,-16.061643 l 0.35611,-1.917809 7.16122,-0.133393 7.16123,-0.133393 v 20.869695 20.869689 h -4.43674 -4.43673 l -0.0398,-12.585611 -0.0398,-12.585617 -1.50626,7.671233 c -0.82845,4.219178 -1.78899,9.882706 -2.13455,12.585615 l -0.62829,4.91438 h -4.61124 c -2.53618,0 -4.61123,-0.0703 -4.61123,-0.15626 0,-0.42244 -1.61604,-10.454412 -2.02154,-12.549214 -0.25522,-1.318493 -0.90305,-4.662672 -1.43962,-7.431507 l -0.97557,-5.034247 -0.13916,12.585617 -0.13916,12.585611 h -4.43361 -4.43361 z m 70.86275,-0.15213 V 63.255683 l 8.48198,0.15213 c 7.90475,0.141776 8.59797,0.228117 10.18626,1.268696 2.70984,1.775369 3.43554,3.550549 3.67526,8.990217 0.18522,4.20328 0.0702,5.089905 -0.88321,6.80648 -0.6029,1.085518 -1.49288,2.17759 -1.97774,2.426827 -0.78164,0.401801 -0.70812,0.590081 0.64879,1.661334 l 1.53034,1.208176 0.16092,9.631501 0.16092,9.631496 h -4.72814 -4.72814 v -8.119468 c 0,-8.682354 -0.37203,-10.579157 -2.07496,-10.579157 -1.02503,0 -1.05685,0.281539 -1.05685,9.349315 v 9.34931 h -4.69772 -4.69771 z m 12.41961,-9.197185 0.15336,-3.476028 h -1.58877 -1.58877 v 3.627737 3.627737 l 1.43541,-0.15171 c 1.40224,-0.148203 1.43896,-0.232046 1.58877,-3.627736 z"
       id="path1" /><path
       style="font-variation-settings:'wght' 700;fill:#26a9e0;fill-opacity:1;stroke-width:1.11654"
       d="m 89.663324,105.74569 c -3.53505,-0.9305 -7.85445,-4.25223 -9.33907,-7.181981 -1.07845,-2.128223 -1.65275,-6.049719 -1.22292,-8.350477 0.42816,-2.291842 1.6747,-4.567671 6.13967,-11.209279 2.1691,-3.226522 4.45222,-6.87129 5.0736,-8.099486 1.34568,-2.659846 2.88444,-7.050926 2.88444,-8.231193 0,-1.921274 0.68346,-1.019585 1.63396,2.155682 1.36457,4.558528 3.15635,8.001741 7.729396,14.853404 5.50053,8.241287 6.08249,9.502783 6.08058,13.180753 -10e-4,2.606935 -0.1403,3.229454 -1.11654,5.00262 -1.55558,2.825427 -4.18971,5.330927 -7.12255,6.774757 -2.229446,1.09756 -2.871926,1.23683 -6.058956,1.31342 -1.96078,0.0471 -4.06751,-0.0466 -4.68161,-0.20822 z m 10.05865,-3.55817 c 3.041416,-1.27078 5.750806,-5.089859 5.756946,-8.114819 0.003,-1.532882 -0.54594,-1.245171 -1.77561,0.93045 -1.36581,2.41649 -4.206916,5.114979 -6.733046,6.395069 -1.05067,0.53242 -1.91032,1.04895 -1.91032,1.14786 0,0.40731 3.46727,0.14065 4.66203,-0.35856 z"
       id="path2" /><path
       style="font-variation-settings:'wght' 700;fill:#397d9c;fill-opacity:1;stroke-width:0.789514"
       d="M 27.178014,84.209561 V 63.419029 l 5.59239,0.0081 c 5.62388,0.0082 8.51239,0.235479 10.54609,0.829913 1.58754,0.464026 4.41705,3.333496 5.00741,5.078137 1.05753,3.12519 1.23893,10.732839 0.31704,13.295331 -0.64701,1.798405 -2.2948,3.996161 -3.59097,4.789498 -1.19725,0.73279 -3.88838,1.359739 -7.14773,1.665198 l -1.7764,0.166481 v 7.87419 7.87419 h -4.47391 -4.47392 z m 11.76346,-3.99325 c 0.57732,-0.475017 0.95928,-2.168533 0.93938,-4.165061 -0.0342,-3.43681 -0.82268,-4.72378 -2.8997,-4.733202 l -0.85531,-0.0039 v 4.766966 4.766966 l 1.25006,-0.186098 c 0.68754,-0.102351 1.39204,-0.302913 1.56557,-0.44569 z"
       id="path4" /><path
       style="font-variation-settings:'wght' 700;fill:#397d9c;fill-opacity:1;stroke-width:0.789514"
       d="M 56.916374,84.212972 V 63.419029 h 4.47392 4.47391 v 17.23772 17.237721 h 4.74472 4.74472 l -0.0734,3.48702 -0.0734,3.48702 -9.1452,0.0692 -9.14521,0.0692 z"
       id="path5" /><path
       style="font-variation-settings:'wght' 700;fill:#397d9c;fill-opacity:1;stroke-width:2.98399"
       d="m 469.63811,315.80559 c 0,-1.36767 0.22576,-1.92717 0.5017,-1.24333 0.27593,0.68383 0.27593,1.80282 0,2.48665 -0.27594,0.68384 -0.5017,0.12434 -0.5017,-1.24332 z"
       id="path6"
       transform="scale(0.26458333)" /><path
       style="font-variation-settings:'wght' 700;fill:#397d9c;fill-opacity:1;stroke-width:0.789514"
       d="m 157.09692,104.82465 c -0.0965,-0.0965 -0.17545,-9.471244 -0.17545,-20.832772 v -20.65732 l 6.90825,0.173281 c 3.79954,0.09531 7.94448,0.173524 9.211,0.173821 l 2.30275,5.29e-4 v 3.907361 3.907359 l -2.96068,0.170598 c -1.62837,0.09383 -3.70085,0.171138 -4.6055,0.171796 l -1.64482,0.0013 v 3.894249 3.894251 l 1.71651,-0.109299 c 0.94409,-0.06012 2.95734,-0.02471 4.47392,0.07865 l 2.75739,0.187944 v 3.922244 3.922247 h -4.47391 -4.47391 v 4.737084 4.737081 h 5.03966 5.03966 l -0.17099,2.40897 c -0.094,1.324936 -0.17099,3.101346 -0.17099,3.947566 v 1.5386 h -9.29872 c -5.1143,0 -9.37767,-0.0789 -9.47417,-0.17544 z"
       id="path7" /><path
       style="font-variation-settings:'wght' 700;fill:#397d9c;fill-opacity:1;stroke-width:0.789514"
       d="m 112.70911,93.22318 c 2.3e-4,-6.477305 0.0786,-15.773832 0.17418,-20.658947 l 0.17375,-8.882034 h 6.80812 c 5.39846,0 6.83575,0.07198 6.94152,0.347607 0.0734,0.191183 0.88372,4.873874 1.80079,10.405981 0.91707,5.532106 1.74153,10.132507 1.83214,10.223108 0.0906,0.0906 0.22933,0.100137 0.30828,0.02119 0.079,-0.07895 0.79017,-4.154818 1.58048,-9.057478 0.79031,-4.902663 1.57011,-9.594887 1.73289,-10.427169 l 0.29596,-1.513234 1.74217,-7.93e-4 c 0.95819,-2.65e-4 4.14031,-0.07839 7.07138,-0.173358 l 5.32922,-0.172662 V 84.167696 105 h -4.34233 -4.34232 V 92.315143 c 0,-7.38323 -0.0975,-12.580363 -0.23322,-12.434845 -0.49998,0.535974 -4.2365,22.036522 -4.23971,24.395982 l -0.001,0.72372 -3.22385,-0.002 c -1.77312,-0.001 -3.81909,-0.0738 -4.54661,-0.16127 l -1.32276,-0.15898 -0.95243,-5.825879 c -1.62025,-9.910834 -3.4865,-19.267884 -3.67391,-18.420363 -0.0914,0.413475 -0.18026,6.110602 -0.19738,12.660278 l -0.0311,11.908504 h -4.34233 -4.34232 z"
       id="path8" /><path
       style="font-variation-settings:'wght' 700;fill:#397d9c;fill-opacity:1;stroke-width:0.789514"
       d="M 183.76495,84.169313 V 63.338532 l 7.56541,0.188558 c 4.16098,0.103709 8.10225,0.303689 8.75837,0.444402 1.49151,0.319871 3.61762,1.899817 4.37606,3.25192 0.82702,1.474361 1.22589,3.993224 1.25207,7.906739 0.0217,3.234987 -0.0171,3.502623 -0.71138,4.916464 -0.40385,0.822378 -1.14402,1.854996 -1.64482,2.294707 -0.5008,0.439711 -0.91055,0.956398 -0.91055,1.148194 0,0.191796 0.59214,0.800288 1.31586,1.352203 l 1.31586,1.003486 v 2.429065 c 0,1.335985 0.0782,5.645835 0.17386,9.577443 l 0.17387,7.148387 h -4.62264 -4.62265 l -0.0912,-8.224106 c -0.0841,-7.591086 -0.13167,-8.305131 -0.61727,-9.276789 -0.46349,-0.927412 -0.63572,-1.052687 -1.4472,-1.052687 -0.92027,0 -0.92126,0.0013 -1.09245,1.447443 -0.0943,0.796094 -0.18307,4.970647 -0.19738,9.276789 l -0.026,7.82935 h -4.47391 -4.47391 z m 11.60664,-5.773809 c 0.47002,-0.240644 0.76241,-2.264728 0.76241,-5.277742 v -1.803596 h -1.71062 -1.71061 v 3.790942 3.790942 l 1.11848,-0.142277 c 0.61516,-0.07825 1.30832,-0.239474 1.54034,-0.358269 z"
       id="path9" /><path
       style="font-variation-settings:'wght' 700;fill:#397d9c;fill-opacity:1;stroke-width:0.789514"
       d="m 220.63647,104.84679 c -1.74117,-0.46822 -3.71591,-1.51887 -4.59364,-2.44402 -0.36126,-0.38077 -1.16926,-1.63973 -1.79556,-2.797684 l -1.13872,-2.105372 -0.0902,-12.015764 c -0.0567,-7.556214 0.0124,-12.674631 0.18622,-13.791014 0.55496,-3.564652 2.40967,-6.106832 5.52232,-7.569263 1.51994,-0.714121 2.10138,-0.835753 4.41595,-0.923775 4.24167,-0.161311 7.12877,0.749491 9.41306,2.96957 1.67559,1.628481 2.49418,3.404679 2.83198,6.144879 0.40647,3.297153 0.12393,23.333622 -0.35905,25.462769 -0.74564,3.287084 -2.92442,5.600784 -6.44373,6.842754 -2.11747,0.74727 -5.63978,0.84782 -7.94867,0.22692 z m 4.74302,-8.39976 c 0.0921,-0.434235 0.18143,-6.332472 0.19856,-13.107194 l 0.0311,-12.31768 -1.24799,0.08021 c -1.08809,0.06994 -1.29565,0.18006 -1.62004,0.859552 -0.60309,1.263251 -0.96376,11.718827 -0.6364,18.448544 0.31732,6.52313 0.47878,7.044883 2.13745,6.90681 0.83901,-0.06984 0.99244,-0.187251 1.13728,-0.870246 z"
       id="path10" /><path
       style="font-variation-settings:'wght' 700;fill:#397d9c;fill-opacity:1;stroke-width:0.789514"
       d="m 250.43778,105.0059 c -2.07626,-0.44247 -3.7573,-1.35634 -4.96419,-2.6987 -1.75359,-1.95042 -2.27897,-3.983693 -2.8912,-11.189389 l -0.16211,-1.907993 h 4.58267 4.58268 l 0.18049,2.829092 c 0.29365,4.602676 0.7179,5.461902 2.60669,5.279191 1.27357,-0.123195 1.83864,-1.428721 1.50519,-3.477529 -0.42283,-2.597989 -1.04912,-3.476255 -6.16937,-8.651624 -4.17651,-4.221472 -4.97617,-5.163661 -5.80376,-6.838172 -1.21257,-2.453479 -1.48327,-4.957675 -0.81754,-7.562951 1.34629,-5.268555 5.29543,-7.899624 11.36924,-7.574642 6.41594,0.343289 9.8048,3.824764 10.29494,10.576311 l 0.15102,2.08057 -1.02729,-0.16968 c -0.56502,-0.09333 -2.58303,-0.170984 -4.48445,-0.17258 l -3.45714,-0.0029 -0.18694,-1.246597 c -0.2331,-1.554425 -0.74829,-2.572724 -1.57603,-3.115075 -0.85902,-0.562856 -1.68161,-0.263668 -2.11287,0.768493 -0.69108,1.653992 -0.41119,2.059882 5.38143,7.80392 4.62257,4.5838 5.58229,5.67201 6.38271,7.237211 1.54908,3.02922 1.90479,6.064792 1.13586,9.69386 -0.82873,3.911294 -3.18064,7.158984 -5.76816,7.965124 -1.56275,0.48687 -7.11,0.72396 -8.75187,0.37405 z"
       id="path14" /></g></svg>
