<?xml version="1.0" encoding="UTF-8" standalone="no"?>
<!-- Created with Inkscape (http://www.inkscape.org/) -->

<svg
   width="500"
   height="200"
   viewBox="0 0 132.29167 52.916665"
   version="1.1"
   id="svg1"
   xml:space="preserve"
   inkscape:version="1.4.2 (f4327f4, 2025-05-13)"
   sodipodi:docname="Logotipo.svg"
   inkscape:export-filename="Logotipo.png"
   inkscape:export-xdpi="96"
   inkscape:export-ydpi="96"
   xmlns:inkscape="http://www.inkscape.org/namespaces/inkscape"
   xmlns:sodipodi="http://sodipodi.sourceforge.net/DTD/sodipodi-0.dtd"
   xmlns="http://www.w3.org/2000/svg"
   xmlns:svg="http://www.w3.org/2000/svg"><sodipodi:namedview
     id="namedview1"
     pagecolor="#505050"
     bordercolor="#eeeeee"
     borderopacity="1"
     inkscape:showpageshadow="0"
     inkscape:pageopacity="0"
     inkscape:pagecheckerboard="0"
     inkscape:deskcolor="#505050"
     inkscape:document-units="px"
     inkscape:zoom="2"
     inkscape:cx="253.75"
     inkscape:cy="108"
     inkscape:window-width="1920"
     inkscape:window-height="991"
     inkscape:window-x="-9"
     inkscape:window-y="-9"
     inkscape:window-maximized="1"
     inkscape:current-layer="layer1" /><defs
     id="defs1" /><g
     inkscape:label="Capa 1"
     inkscape:groupmode="layer"
     id="layer1"><path
       style="fill:#3fbf63"
       d="m 29.492913,41.049667 -0.870611,0.08239 -0.05584,-0.05286 -0.05584,-0.05286 v -0.934945 -0.934945 l 0.687369,-0.186966 0.687369,-0.186965 0.53794,-0.323943 0.537941,-0.323942 0.374369,-0.374088 0.374369,-0.374088 0.323835,-0.494915 0.323835,-0.494916 0.156719,-0.523497 0.156718,-0.523497 0.07695,-0.424339 0.07695,-0.424339 H 32.644452 32.463928 L 32.340179,34.282075 32.216431,34.0632 v -0.270989 -0.270989 l -0.589775,-0.26148 -0.589774,-0.26148 -0.407769,-0.408515 -0.407769,-0.408515 -0.269269,-0.427199 -0.269269,-0.427198 -0.166278,-0.591215 -0.166278,-0.591214 -0.0014,-1.775544 -0.0014,-1.775544 -0.09572,-0.056 -0.09572,-0.056 -0.02738,-0.439301 -0.02738,-0.4393 0.245628,-0.210416 0.245627,-0.210416 0.594729,0.02569 0.594729,0.02569 v -1.990984 -1.990984 l 0.293422,-0.277749 0.293422,-0.277749 h 0.16391 0.163909 l 0.256992,0.258942 0.256991,0.258943 0.03282,1.975907 0.03282,1.975908 H 33.745625 35.215 l 0.02491,-2.018644 0.0249,-2.018643 0.282214,-0.216207 0.282213,-0.216206 0.136185,0.0036 0.136185,0.0036 0.239085,0.170744 0.239084,0.170743 0.05977,2.060508 0.05977,2.060508 0.638206,0.0013 0.638206,0.0013 0.16871,0.218394 0.168702,0.218393 v 0.424323 0.424322 l -0.11954,0.06993 -0.119542,0.06994 v 1.972378 1.972379 l -0.308658,0.72982 -0.308654,0.72982 -0.585951,0.554652 -0.585951,0.554651 -0.480133,0.204945 -0.480133,0.204945 v 0.314072 0.314073 l -0.27974,0.208289 -0.279739,0.208289 -0.06604,0.67689 -0.06604,0.67689 -0.234122,0.622364 -0.234123,0.622363 -0.205398,0.439451 -0.205398,0.439451 0.206902,-0.07516 0.206903,-0.07516 0.847368,-0.525958 0.847369,-0.525958 1.017981,-0.969908 1.017977,-0.969907 0.432512,-0.622364 0.43252,-0.622363 0.32057,-0.544228 0.320569,-0.544229 0.18412,-0.474184 0.18412,-0.474184 0.23399,-0.792099 0.23399,-0.792099 0.0688,-2.178271 0.0688,-2.178272 h 0.88 0.880014 l -1.7e-4,2.008536 -1.6e-4,2.008536 -0.17042,0.916613 -0.17042,0.916613 -0.24312,0.701042 -0.243134,0.701042 -0.47384,0.896141 -0.47385,0.896141 -0.57637,0.767756 -0.576369,0.767756 -0.96604,0.905256 -0.966036,0.905256 -1.006885,0.644685 -1.006886,0.644686 -0.945337,0.407305 -0.945337,0.407305 -0.668486,0.22558 -0.668486,0.22558 -0.836797,0.173372 -0.836797,0.173373 z m 3.115881,-8.492378 0.153278,-0.03659 1.520316,-1.605676 1.520316,-1.605676 v -0.119964 -0.119968 h -0.717255 -0.717254 v -0.152021 -0.15202 l 0.221226,-0.611789 0.221227,-0.611789 0.0854,-0.43622 0.0854,-0.436221 -0.1572,0.04885 -0.157199,0.04885 -1.458211,1.575516 -1.458211,1.575517 -0.0062,0.12934 -0.0062,0.12934 0.189091,0.06869 0.189091,0.06868 h 0.468392 0.468393 l -0.0015,0.141446 -0.0015,0.141446 -0.29733,0.881277 -0.29733,0.881278 v 0.117143 0.117143 z m -6.100514,8.496895 -0.448284,-0.0099 -1.016111,-0.194655 -1.01611,-0.194654 -0.986561,-0.314081 -0.986561,-0.31408 -1.138913,-0.548883 -1.138913,-0.548883 -0.790518,-0.533969 -0.790518,-0.53397 -0.826619,-0.738138 -0.82662,-0.738138 -0.7058,-0.886635 -0.705801,-0.886634 -0.543668,-1.045446 -0.543667,-1.045446 -0.241322,-0.905255 -0.241323,-0.905256 -0.07237,-0.803365 -0.07237,-0.803365 0.08278,-0.627175 0.08278,-0.627176 0.381524,-0.602221 0.381523,-0.602222 0.573143,-0.334642 0.573143,-0.334642 0.649641,-0.051 0.649641,-0.051 0.136706,-0.155921 0.136705,-0.155922 h 0.34399 0.34399 v 1.471041 1.47104 h -0.351572 -0.351572 l -0.07388,-0.113157 -0.07388,-0.113157 H 16.62993 16.358967 l -0.289809,0.292907 -0.289808,0.292908 0.01627,0.810373 0.01627,0.810373 0.193846,0.698607 0.193847,0.698607 0.339663,0.715855 0.339664,0.715855 0.458644,0.678942 0.458644,0.678942 0.964031,0.908297 0.964031,0.908296 0.887662,0.549942 0.887661,0.549943 0.845704,0.363307 0.845704,0.363307 0.777025,0.238239 0.777026,0.23824 0.777026,0.122199 0.777026,0.1222 0.328741,0.06186 0.328742,0.06186 v 0.952843 0.952843 z m -1.072042,-4.523582 -0.213039,-0.0072 -0.298856,-0.112473 -0.298856,-0.112472 -0.324105,-0.29337 -0.324105,-0.293369 -0.07482,-0.472287 -0.07482,-0.472286 0.187943,-0.425785 0.187943,-0.425784 0.608441,-0.953498 0.60844,-0.953498 0.110976,0.06492 0.110976,0.06492 0.68699,1.09638 0.686989,1.09638 v 0.641536 0.641536 l -0.298856,0.306593 -0.298856,0.306592 -0.384673,0.155152 -0.384674,0.155152 z m 0.105741,-5.537519 h -1.534128 l -0.0797,-0.07544 -0.07969,-0.07544 v -0.255951 -0.25595 l 0.193377,-0.183048 0.193378,-0.183048 v -0.674361 -0.674366 l -0.148244,-0.169081 -0.148243,-0.169082 h -2.352303 -2.352303 l -0.129663,0.122738 -0.129664,0.122737 -0.282758,-0.03787 -0.282757,-0.03787 v -1.414462 -1.414462 l 0.278828,-0.03738 0.278829,-0.03738 0.220332,0.188747 0.220332,0.188747 0.218094,-0.03929 0.218094,-0.03929 0.05977,-0.696843 0.05977,-0.696842 0.09699,-0.09169 0.09699,-0.09168 0.620263,-0.05907 0.620263,-0.05907 0.03647,-0.475381 0.03647,-0.475381 -0.208141,-0.300695 -0.208141,-0.300695 -0.605358,0.0631 -0.605358,0.0631 -0.309874,0.07211 -0.309874,0.07211 -0.198182,-0.187596 -0.198181,-0.187595 v -0.333814 -0.333815 l 0.289538,-0.124875 0.289537,-0.124875 0.385785,0.127301 0.385784,0.127301 h 0.416737 0.416738 l 0.27697,-0.282892 0.276971,-0.282892 h 0.403268 0.403269 l 0.289712,0.291911 0.289712,0.291912 0.538037,-0.05479 0.538038,-0.05479 0.33293,-0.08134 0.332931,-0.08134 0.234896,0.201223 0.234896,0.201223 v 0.247817 0.247816 l -0.234896,0.201223 -0.234896,0.201223 -0.332931,-0.08134 -0.33293,-0.08134 -0.540525,-0.05495 -0.540524,-0.05495 -0.213683,0.223505 -0.213683,0.223504 0.03695,0.549483 0.03695,0.549483 0.535596,0.03607 0.535596,0.03607 0.151773,0.119232 0.151773,0.119232 0.0016,0.467062 0.0016,0.467062 0.07208,0.254603 0.07208,0.254603 h 0.348524 0.348524 l 0.384674,0.153014 0.384673,0.153014 0.383133,0.372465 0.383134,0.372466 0.184693,0.513091 0.184693,0.513091 v 1.042727 1.042727 l 0.179314,0.06513 0.179313,0.06513 v 0.399601 0.3996 z m 15.71385,-6.789417 h -0.88262 l -0.06,-0.217043 -0.06,-0.217042 0.0384,-1.143096 0.0384,-1.143096 -0.14184,-0.112253 -0.14183,-0.112253 -0.44053,-0.309831 -0.440529,-0.309831 -1.56611,-1.018412 -1.566104,-1.018413 -1.400325,-0.925935 -1.400325,-0.925934 -0.478169,-0.327015 -0.47817,-0.327015 -1.554051,-1.021534 -1.554052,-1.021534 -0.654718,-0.431855 -0.654717,-0.431853 -0.122308,7.04e-4 -0.122309,7.05e-4 -2.809247,1.848354 -2.809247,1.848353 -1.01611,0.667128 -1.016111,0.667127 -0.777026,0.506029 -0.777025,0.506029 -1.613823,1.056491 -1.613823,1.056492 -0.03468,1.054382 -0.03468,1.054381 -0.129384,0.147571 -0.129384,0.147571 H 14.0335 13.213617 l -0.06665,-0.254603 -0.06665,-0.254604 0.03449,-1.464019 0.03449,-1.46402 1.100187,-0.742541 1.100188,-0.742541 3.471799,-2.263139 3.471799,-2.26314 1.545802,-1.018413 1.545802,-1.018413 0.69613,-0.451258 0.696129,-0.451259 0.337914,-0.255972 0.337914,-0.255973 h 0.238826 0.238825 l 2.572983,1.725644 2.572983,1.725644 0.376779,0.24808 0.37678,0.24808 0.08482,0.0065 0.08482,0.0065 0.03472,-0.933545 0.03472,-0.933545 h 1.852908 1.852908 l 0.03238,2.226683 0.03238,2.226683 2.149265,1.438701 2.149264,1.4387 v 1.964176 1.964176 z"
       id="path335"
       sodipodi:nodetypes="cccccccccccccccccccccccccccccccccccccccccccccccccccccccccccccccccccccccccccccccccccccccccccccccccccccccccccccccccccccccccccccccccccccccccccccccccccccccccccccccccccccccccccccccccccccccccccccccccccccccccccccccccccccccccccccccccccccccccccccccccccccccccccccccccccccccccccccccccccccccccccccccccccccccccccccccccccccccccccccccccccccccccccccccccccccccccccccccccccccccccccccccccccccccccccccccccccccccccccccccccccccccccccccc" /><path
       style="fill:#327896"
       d="m 29.492913,41.049667 -0.870611,0.08239 -0.05584,-0.05286 -0.05584,-0.05286 v -0.934945 -0.934945 l 0.687369,-0.186966 0.687369,-0.186965 0.53794,-0.323943 0.537943,-0.323942 0.37437,-0.374088 0.37437,-0.374088 0.32383,-0.494915 0.32384,-0.494916 0.15671,-0.523497 0.15672,-0.523497 0.0769,-0.424339 0.0769,-0.424339 h -0.18053 -0.18053 l -0.12374,-0.218877 -0.12375,-0.218875 v -0.270989 -0.270989 l -0.58978,-0.26148 -0.58977,-0.26148 -0.40777,-0.408515 -0.407769,-0.408515 -0.269269,-0.427199 -0.269269,-0.427198 -0.166278,-0.591215 -0.166278,-0.591214 -0.0014,-1.775544 -0.0014,-1.775544 -0.09572,-0.056 -0.09572,-0.056 -0.02738,-0.439301 -0.02738,-0.4393 0.245628,-0.210416 0.245627,-0.210416 0.594729,0.02569 0.594729,0.02569 v -1.990984 -1.990984 l 0.29342,-0.277749 0.29342,-0.277749 h 0.16391 0.16391 l 0.25699,0.258942 0.257,0.258943 0.0328,1.975907 0.0328,1.975908 h 1.46937 1.46938 l 0.0249,-2.018644 0.0249,-2.018643 0.28221,-0.216207 0.28221,-0.216206 0.13619,0.0036 0.13618,0.0036 0.23909,0.170744 0.23908,0.170743 0.0598,2.060508 0.0598,2.060508 0.63821,0.0013 0.63821,0.0013 0.1687,0.218394 0.16871,0.218393 v 0.424323 0.424322 l -0.11955,0.06993 -0.11954,0.06994 v 1.972378 1.972379 l -0.30865,0.72982 -0.30866,0.72982 -0.58595,0.554652 -0.58595,0.554651 -0.48013,0.204945 -0.48014,0.204945 v 0.314072 0.314073 l -0.27974,0.208289 -0.27973,0.208289 -0.066,0.67689 -0.066,0.67689 -0.23413,0.622364 -0.23412,0.622363 -0.2054,0.439451 -0.2054,0.439451 0.20691,-0.07516 0.2069,-0.07516 0.84737,-0.525958 0.84737,-0.525958 1.01798,-0.969908 1.01798,-0.969907 0.43251,-0.622364 0.43251,-0.622363 0.32057,-0.544228 0.320566,-0.544229 0.18412,-0.474184 0.18412,-0.474184 0.23399,-0.792099 0.23399,-0.792099 0.0688,-2.178271 0.0688,-2.178272 h 0.88 0.880014 l -1.7e-4,2.008536 -1.6e-4,2.008536 -0.17042,0.916613 -0.17042,0.916613 -0.24312,0.701042 -0.243134,0.701042 -0.47384,0.896141 -0.47385,0.896141 -0.57637,0.767756 -0.576366,0.767756 -0.96603,0.905256 -0.96604,0.905256 -1.00688,0.644685 -1.00689,0.644686 -0.94534,0.407305 -0.94533,0.407305 -0.66849,0.22558 -0.66849,0.22558 -0.83679,0.173372 -0.8368,0.173373 z m 3.11588,-8.492378 0.15328,-0.03659 1.52031,-1.605676 1.52032,-1.605676 v -0.119964 -0.119968 h -0.71725 -0.71726 v -0.152021 -0.15202 l 0.22123,-0.611789 0.22122,-0.611789 0.0854,-0.43622 0.0854,-0.436221 -0.1572,0.04885 -0.15719,0.04885 -1.45822,1.575516 -1.45821,1.575517 -0.006,0.12934 -0.006,0.12934 0.18909,0.06869 0.1891,0.06868 h 0.46839 0.46839 l -0.002,0.141446 -10e-4,0.141446 -0.29733,0.881277 -0.29733,0.881278 v 0.117143 0.117143 z"
       id="path334"
       sodipodi:nodetypes="cccccccccccccccccccccccccccccccccccccccccccccccccccccccccccccccccccccccccccccccccccccccccccccccccccccccccccccccccccccccccccccccccccccccccccccccccccccccccccccccc" /><text
       xml:space="preserve"
       style="font-style:normal;font-variant:normal;font-weight:bold;font-stretch:normal;font-size:18.0015px;line-height:0px;font-family:Calibri;-inkscape-font-specification:'Calibri, Bold';font-variant-ligatures:normal;font-variant-caps:normal;font-variant-numeric:normal;font-variant-east-asian:normal;text-align:center;letter-spacing:-1.05833px;writing-mode:lr-tb;direction:ltr;text-anchor:middle;fill:#3fbf63;fill-opacity:1;stroke-width:0.873139"
       x="74.861259"
       y="28.649828"
       id="text336"
       transform="scale(1.0780562,0.92759543)"><tspan
         sodipodi:role="line"
         id="tspan336"
         x="74.332092"
         y="28.649828"
         style="font-style:normal;font-variant:normal;font-weight:bold;font-stretch:normal;font-size:18.0015px;font-family:Calibri;-inkscape-font-specification:'Calibri, Bold';font-variant-ligatures:normal;font-variant-caps:normal;font-variant-numeric:normal;font-variant-east-asian:normal;letter-spacing:-1.05833px;fill:#3fbf63;fill-opacity:1;stroke-width:0.873139">Plomeros</tspan></text><text
       xml:space="preserve"
       style="font-style:normal;font-variant:normal;font-weight:bold;font-stretch:normal;font-size:11.0705px;line-height:0px;font-family:Calibri;-inkscape-font-specification:'Calibri, Bold';font-variant-ligatures:normal;font-variant-caps:normal;font-variant-numeric:normal;font-variant-east-asian:normal;text-align:center;letter-spacing:-0.0605232px;writing-mode:lr-tb;direction:ltr;text-anchor:middle;fill:#397d9c;fill-opacity:1;stroke-width:0.488135"
       x="76.846169"
       y="37.874538"
       id="text337"
       transform="scale(1.0509164,0.95155047)"><tspan
         sodipodi:role="line"
         id="tspan337"
         style="letter-spacing:-0.0605232px;stroke-width:0.488135"
         x="76.815903"
         y="37.874538">Multiservicios</tspan></text></g></svg>
